<svg xmlns="http://www.w3.org/2000/svg" viewBox="0 0 22.12 18.7"><path d="M21.769.512A1.435 1.435 0 0020.63 0a2.235 2.235 0 00-.8.158L1.119 7.3C.125 7.682-.008 8.251 0 8.556s.174.866 1.188 1.188l.018.005 3.882 1.111 2.1 6a1.812 1.812 0 001.677 1.327 1.985 1.985 0 001.342-.572l2.4-2.211 3.483 2.8.033.027.009.007a2.011 2.011 0 001.223.459 1.716 1.716 0 001.636-1.521L22.06 2.044a1.809 1.809 0 00-.291-1.532zM6.387 10.65l7.49-3.826-4.664 4.955a.647.647 0 00-.157.289l-.9 3.643zm2.943 6.017a1.052 1.052 0 01-.093.077l.834-3.379 1.518 1.222zM20.791 1.786l-3.067 15.143c-.03.145-.124.482-.366.482a.755.755 0 01-.424-.184l-3.947-3.177-2.348-1.891 6.745-7.167a.648.648 0 00-.766-1.021L5.522 9.637 1.587 8.511 20.3 1.369a.95.95 0 01.33-.069c.04 0 .11 0 .136.037a.618.618 0 01.024.454zm0 0" fill="#b7b7b7"/></svg>