<svg xmlns="http://www.w3.org/2000/svg" width="16.577" height="15.89"><path d="M.514 7.208a1.166 1.166 0 01.647-1.988l3.936-.572a.514.514 0 00.387-.282L7.243.803a1.166 1.166 0 012.091 0l1.76 3.567a.515.515 0 00.388.282l3.936.572a1.166 1.166 0 01.643 1.984l-2.848 2.776a.515.515 0 00-.148.456l.672 3.92a1.166 1.166 0 01-1.691 1.229l-3.52-1.851a.515.515 0 00-.479 0l-3.52 1.851a1.166 1.166 0 01-1.691-1.229l.672-3.92a.515.515 0 00-.148-.456zm3.637 3.342l-.672 3.92a.515.515 0 00.747.543l3.52-1.851a1.166 1.166 0 011.085 0l3.52 1.851a.515.515 0 00.747-.543l-.672-3.92a1.166 1.166 0 01.335-1.032l2.848-2.776a.515.515 0 00-.285-.878l-3.936-.572a1.164 1.164 0 01-.878-.638L8.751 1.088a.515.515 0 00-.923 0L6.067 4.654a1.164 1.164 0 01-.878.638l-3.936.572a.515.515 0 00-.285.878l2.848 2.776a1.165 1.165 0 01.335 1.032z" fill="#fcc537" stroke="#fcc537" stroke-width=".3"/></svg>