<svg xmlns="http://www.w3.org/2000/svg" width="20.122" height="18.925" viewBox="0 0 20.122 18.925">
  <g id="download_1_" data-name="download (1)" transform="translate(0.25 0.26)">
    <path id="Path_444" data-name="Path 444" d="M3.773,4.94a6.138,6.138,0,0,1,12.039,0,4.3,4.3,0,0,1-.495,8.565H12.248a.614.614,0,0,1,0-1.228h3.069a3.069,3.069,0,1,0-.036-6.138.614.614,0,0,1-.61-.546,4.911,4.911,0,0,0-9.756,0,.651.651,0,0,1-.646.546,3.069,3.069,0,1,0,0,6.138H7.338a.614.614,0,0,1,0,1.228H4.269a4.3,4.3,0,0,1-.5-8.562Zm0,0" transform="translate(0.001 0)" fill="#fff" stroke="#fff" stroke-width="0.5"/>
    <path id="Path_445" data-name="Path 445" d="M173.279,214.955l1.556,1.557v-7.725a.614.614,0,1,1,1.228,0v7.725l1.556-1.557a.614.614,0,1,1,.883.853l-.015.015-2.6,2.6a.616.616,0,0,1-.2.133.606.606,0,0,1-.473,0,.613.613,0,0,1-.2-.133l-2.6-2.6a.614.614,0,0,1,.853-.883Zm0,0" transform="translate(-165.654 -200.196)" fill="#fff" stroke="#fff" stroke-width="0.5"/>
  </g>
</svg>
