<svg xmlns="http://www.w3.org/2000/svg" viewBox="0 0 20.31 20.31"><g fill="#b7b7b7"><path d="M20.258 5.973a7.423 7.423 0 00-.472-2.464A5.2 5.2 0 0016.814.536a7.442 7.442 0 00-2.463-.472C13.262.012 12.917 0 10.159 0S7.051.012 5.972.06a7.425 7.425 0 00-2.464.472 4.957 4.957 0 00-1.8 1.175A5 5 0 00.535 3.5a7.443 7.443 0 00-.472 2.469C.011 7.056 0 7.4 0 10.159s.012 3.1.06 4.187a7.423 7.423 0 00.471 2.464 5.2 5.2 0 002.972 2.972 7.443 7.443 0 002.464.472c1.083.048 1.429.06 4.187.06s3.1-.012 4.187-.06a7.421 7.421 0 002.464-.472 5.2 5.2 0 002.972-2.972 7.448 7.448 0 00.472-2.464c.048-1.083.06-1.429.06-4.187s0-3.1-.052-4.187zm-1.829 8.294a5.568 5.568 0 01-.349 1.885 3.37 3.37 0 01-1.929 1.928 5.588 5.588 0 01-1.885.349c-1.071.048-1.393.06-4.1.06s-3.036-.012-4.1-.06a5.565 5.565 0 01-1.885-.349 3.126 3.126 0 01-1.167-.758 3.158 3.158 0 01-.763-1.166 5.589 5.589 0 01-.349-1.885c-.048-1.071-.06-1.393-.06-4.1s.012-3.036.06-4.1a5.565 5.565 0 01.349-1.892 3.088 3.088 0 01.762-1.167 3.153 3.153 0 011.167-.758A5.592 5.592 0 016.063 1.9c1.071-.048 1.393-.06 4.1-.06s3.036.012 4.1.06a5.568 5.568 0 011.885.349 3.124 3.124 0 011.167.758 3.158 3.158 0 01.758 1.167 5.591 5.591 0 01.349 1.885c.048 1.071.06 1.393.06 4.1s-.012 3.028-.06 4.1zm0 0"/><path d="M10.16 4.941a5.219 5.219 0 105.219 5.218 5.22 5.22 0 00-5.219-5.218zm0 8.6a3.385 3.385 0 113.385-3.385 3.386 3.386 0 01-3.385 3.385zm6.642-8.807a1.218 1.218 0 11-1.218-1.218 1.218 1.218 0 011.218 1.218zm0 0"/></g></svg>